<svg width="150" height="32" viewBox="0 0 150 32" fill="none" xmlns="http://www.w3.org/2000/svg">
<g clip-path="url(#clip0_20_151)">
<path fill-rule="evenodd" clip-rule="evenodd" d="M123.653 28.3467L118.1 24.355L112.587 28.3467H100.998L112.332 20.2003L100.998 12.0539H112.949L118.556 16.0112L123.961 12.0539H135.496L124.216 20.166L135.657 28.3467H123.653ZM78.7466 28.3467V2.67993H100.998V8.40559H88.1758V12.0539H100.998V17.5564H88.1758V22.6039H100.998V28.3467H78.7466Z" fill="#FF6600"/>
<path fill-rule="evenodd" clip-rule="evenodd" d="M69.3577 2.67993V13.187H69.2504C67.32 11.7803 64.4854 11.0204 61.5648 11.1268C55.689 11.1598 50.582 13.7169 49.1177 17.3589C47.2534 13.4445 42.4113 11.0495 35.3428 11.0495C29.5618 11.0495 25.0015 12.7063 22.614 15.4189V12.0539H10.6498V8.39701H23.687V2.67993H0V28.3467H10.6498V17.5564H21.2593C20.9282 18.3982 20.7659 19.2636 20.7765 20.1316C20.7765 25.4882 27.161 29.2395 35.3294 29.2395C42.1833 29.2395 46.7034 27.1792 49.0909 23.4194H39.9702C39.0436 24.4739 37.2011 25.0567 35.3294 24.8873C32.3573 24.8454 29.978 23.2961 29.9642 21.3935H48.5812C49.386 25.6856 54.5633 29.3081 61.6587 29.3081C64.6986 29.3143 67.5422 28.348 69.237 26.7329H69.3443V28.3467H78.7332V2.67993L69.3577 2.67993ZM30.2861 17.6336C30.7314 16.0778 32.8445 14.9453 35.3159 14.9382C37.8466 14.8563 40.0546 16.027 40.3994 17.6336H30.2861ZM63.6438 24.4409C60.1833 24.4409 58.0373 22.3807 58.0373 20.2175C58.0373 17.9169 59.9151 15.7022 63.6438 15.7022C67.3726 15.7022 69.0089 17.9169 69.0089 20.2175C69.0089 22.518 67.4396 24.4409 63.6572 24.4409H63.6438Z" fill="#4D148C"/>
<path fill-rule="evenodd" clip-rule="evenodd" d="M149.083 25.2823C149.024 23.9075 147.246 22.8198 145.097 22.8448C142.949 22.8697 141.233 23.998 141.252 25.3732C141.271 26.7485 143.018 27.857 145.167 27.8575C146.231 27.8727 147.258 27.6039 148.001 27.1155C148.744 26.6271 149.136 25.963 149.083 25.2823ZM144.147 25.411V27.1279H143.302V23.3852H145.408C146.642 23.3852 147.206 23.7285 147.206 24.4067C147.227 24.7942 146.797 25.1321 146.2 25.1964C146.682 25.2479 146.87 25.5226 146.978 26.0549C147.014 26.4109 147.137 26.7612 147.34 27.0935H146.334C146.169 26.6805 146.039 26.2622 145.945 25.8403C145.857 25.5499 145.42 25.3587 144.966 25.411H144.147ZM145.207 24.9303C146.025 24.9303 146.267 24.6471 146.267 24.4067C146.267 24.1663 146.039 23.8831 145.207 23.8831H144.147V24.9389H145.207V24.9303ZM140.338 25.2737C140.316 24.0173 141.482 22.8768 143.29 22.3863C145.097 21.8958 147.189 22.1524 148.585 23.0359C149.981 23.9195 150.405 25.255 149.659 26.4172C148.912 27.5794 147.144 28.3382 145.18 28.3383C143.897 28.3569 142.656 28.0412 141.743 27.4634C140.83 26.8856 140.323 26.0953 140.338 25.2737Z" fill="#FF6600"/>
</g>
<defs>
<clipPath id="clip0_20_151">
<rect width="150" height="32" fill="white"/>
</clipPath>
</defs>
</svg>
