<svg width="267" height="32" viewBox="0 0 267 32" fill="none" xmlns="http://www.w3.org/2000/svg">
<g clip-path="url(#clip0_20_155)">
<path d="M228.597 16.5271H240.274L234.382 7.8247L228.597 16.5271ZM209.319 30.1675V26.3815L213.39 25.9461C214.798 25.7782 215.394 24.5657 215.568 24.2884L225.712 8.76582C226.537 7.54548 225.731 6.47355 224.67 6.36226L219.34 5.77259V1.94759H242.461C243.759 1.94759 244.582 2.77741 245.112 3.49789L258.616 22.9041C259.68 24.4524 260.504 25.6747 261.86 25.8426L266.11 26.2898V30.1675H240.102V26.3425L243.404 25.9539C244.997 25.7899 246.295 25.1221 244.997 23.2926L243.759 21.5158H225.295L223.88 23.6812C223 25.0089 223.88 25.7899 225.239 25.9539L228.541 26.3425V30.1675H209.319Z" fill="#CC0000"/>
<path d="M187.5 24.7297H179.833V7.3229H187.5C194.811 7.3229 197.88 8.93373 197.88 16.0273C197.88 23.1813 194.811 24.7297 187.5 24.7297ZM192.096 1.94759H162.36L162.353 5.77259L166.079 6.13381C167.475 6.32516 168.038 7.26823 168.038 8.53932V23.7339C168.038 24.7863 167.564 25.7899 166.329 25.9539L162.337 26.4421V30.1558L192.096 30.1675C205.779 30.1675 211.678 23.9018 211.678 15.6426C211.678 8.21325 205.779 1.94759 192.096 1.94759Z" fill="#CC0000"/>
<path d="M0.889893 30.168H24.9478V26.3957L20.8249 25.9544C19.8778 25.8431 18.9349 25.2906 18.9349 23.3986V18.857H37.4534V23.1818C37.4534 24.451 37.2166 25.6752 35.6256 25.8431L31.4363 26.2902V30.168H55.4984V26.2902L51.2509 25.8431C50.4284 25.7357 49.4834 25.1226 49.4834 23.5138V8.82098C49.4834 7.32339 50.0712 6.32564 51.3091 6.2163L55.4984 5.77308V1.94807H31.4363V5.71841L35.6256 6.2163C37.0401 6.38227 37.4534 7.43663 37.4534 8.82098V13.2005H18.9349V8.7663C18.9349 7.10275 19.6431 6.32564 20.881 6.2163L24.9478 5.77308V1.94807H0.945972V5.77308L4.95874 6.2163C6.55387 6.38227 6.96304 7.4913 6.90488 8.93422V23.2345C6.90488 24.8434 6.43341 25.7904 4.90058 25.9544L0.889893 26.3957V30.168Z" fill="#CC0000"/>
<path d="M81.2115 6.26859C74.374 6.26859 70.4796 8.65458 70.4796 15.9707C70.4796 23.3981 74.374 25.79 81.2115 25.79C88.0531 25.79 91.9475 23.3981 91.9475 15.9707C91.9475 8.65458 88.0531 6.26859 81.2115 6.26859ZM56.6821 15.916C56.6821 7.04765 64.2902 0.836658 81.2717 0.836658C98.1411 0.836658 105.749 7.04765 105.749 15.916C105.749 25.009 98.1411 31.1633 81.2717 31.1633C64.2902 31.1633 56.6821 25.009 56.6821 15.916Z" fill="#CC0000"/>
<path d="M107.089 30.168H126.316V26.3957L122.185 25.9544C121.003 25.8431 120.297 24.9098 120.297 23.6231V9.2642L136.283 29.0589C136.809 29.7247 137.812 30.168 138.755 30.168H153.853V8.7663C153.853 7.7627 154.137 6.38812 155.682 6.2163L159.865 5.77308V1.94807H140.643V5.71841L144.832 6.2163C146.311 6.38422 146.658 7.54597 146.658 8.87565V22.8499L130.794 3.16645C130.206 2.44597 129.439 1.94807 128.318 1.94807H107.089V5.77308L111.097 6.2163C112.51 6.41351 113.044 7.08908 113.044 8.93422V23.2345C113.044 24.9313 112.551 25.7474 111.037 25.9544L107.089 26.3957V30.168Z" fill="#CC0000"/>
</g>
<defs>
<clipPath id="clip0_20_155">
<rect width="267" height="32" fill="white"/>
</clipPath>
</defs>
</svg>
