<svg width="229" height="32" viewBox="0 0 229 32" fill="none" xmlns="http://www.w3.org/2000/svg">
<path d="M124.562 10.5599H129.683V19.6571C129.683 24.2748 125.698 26.9234 118.756 26.9234C111.886 26.9234 107.937 24.3209 107.937 19.7838V10.5714H113.058V19.6801C113.058 22.3748 115.131 23.8142 118.828 23.8142C122.524 23.8142 124.562 22.4093 124.562 19.7953V10.5599ZM95.7115 17.0546H84.1353V10.5599H79.0144V26.6816H84.1353V20.1293H95.6935V26.6816H100.814V10.5599H95.6935V17.0546H95.7115ZM223.951 10.5599V26.6586H229V10.5599H223.951ZM203.846 19.7377H213.168V16.8013H203.846V13.4963H217.37V10.5714H198.797V26.6701H217.856V23.7336H203.846V19.7377ZM183.759 21.6378L178.025 10.5483H173.842L168.108 21.6378L162.536 10.5599H157.091L165.89 26.6701H170.127L175.861 16.0873L181.595 26.6701H185.869L194.65 10.5599H189.331L183.759 21.6378ZM147.985 10.652L159.002 26.6701H153.628L151.357 23.3191H139.798L139.636 23.5494L137.508 26.6701H132.279L143.405 10.5599H147.876L147.985 10.652ZM149.211 20.0256L145.568 14.6248L141.944 20.0256L141.692 20.3941H149.445L149.211 20.0256Z" fill="#24272A"/>
<path d="M28.5986 24.9657C28.6708 24.9311 28.6888 24.862 28.6527 24.8044C23.6807 17.9796 17.478 11.5487 10.1705 5.64261C10.1705 5.64261 4.36438 9.16636 4.7791 12.7016C4.87625 13.5167 5.22406 14.3115 5.80264 15.0406C6.38122 15.7697 7.17922 16.4189 8.15098 16.9508C13.2178 20.1061 25.4792 24.0905 28.3282 25.0002C28.4183 25.0232 28.5265 25.0117 28.5986 24.9657ZM26.7053 27.6603C26.6693 27.5912 26.5611 27.5451 26.4349 27.5451L6.02327 27.9942C8.24114 30.5161 11.9736 32.4738 15.8504 31.875C18.5371 31.4489 24.5956 28.7427 26.5971 27.8215C26.7594 27.7409 26.7053 27.6718 26.7053 27.6603ZM27.0119 26.4972C27.1201 26.3936 26.9397 26.3015 26.9397 26.3015C17.9781 22.4322 0.595809 16.4902 0.595809 16.4902C0.0196666 17.618 -0.141506 18.8154 0.124818 19.9895C0.391142 21.1635 1.07779 22.2825 2.13139 23.2595C3.185 24.2365 4.57718 25.0452 6.19973 25.6227C7.82229 26.2002 9.63151 26.531 11.4868 26.5893C11.7933 26.6239 23.622 26.5893 26.7955 26.5778C26.8856 26.5663 26.9578 26.5433 27.0119 26.4972ZM28.3642 0.0115155C27.4807 0.0575776 25.0825 0.414559 25.0825 0.414559C19.6731 1.30125 18.3928 4.44499 18.3928 4.44499C17.4011 6.41415 18.4109 8.59058 18.4109 8.59058C20.214 13.7035 29.0855 22.1213 30.9968 23.8832C31.123 23.9753 31.2312 23.9408 31.2312 23.9408C31.3394 23.9177 31.4296 23.8602 31.4296 23.7796C34.3867 4.98622 28.3642 0.0115155 28.3642 0.0115155ZM35.126 23.9177C35.2342 23.9408 35.3604 23.9177 35.4145 23.8486C37.3799 22.0407 46.1973 13.6689 48.0005 8.57906C48.0005 8.57906 48.9742 6.11474 48.0365 4.43348C48.0365 4.43348 46.7022 1.24368 41.2928 0.403043C41.2928 0.403043 39.7421 0.149702 38.0832 0C38.0832 0 32.0246 4.97471 34.9818 23.768C34.9637 23.8371 35.0359 23.8947 35.126 23.9177ZM39.9584 27.5566C39.9104 27.5628 39.8648 27.5752 39.8245 27.593C39.7842 27.6109 39.75 27.6337 39.724 27.6603C39.706 27.7294 39.724 27.787 39.7962 27.833C41.7435 28.7312 47.6759 31.3798 50.5249 31.8865C50.5249 31.8865 55.8081 33.038 60.3881 28.0058L39.9584 27.5566ZM65.8335 16.4672C65.8335 16.4672 48.4873 22.4207 39.5076 26.2899C39.4175 26.336 39.3634 26.4051 39.3995 26.4742C39.3995 26.4742 39.4896 26.5778 39.6158 26.5778C42.8254 26.5778 54.9786 26.5893 55.3032 26.5548C56.5113 26.4972 57.7014 26.3245 58.8193 26.0366C58.8193 26.0366 63.1469 25.1614 65.3828 22.0177C65.3828 22.0177 67.3842 19.4612 65.8335 16.4672ZM37.8668 24.9657C37.9389 25.0002 38.0471 25.0117 38.1373 24.9772C41.0583 24.0444 53.2296 20.0946 58.2603 16.9508C58.2603 16.9508 61.4519 15.3156 61.6142 12.6786C61.9748 9.02817 56.2228 5.64261 56.2228 5.64261C56.2228 5.64261 45.5842 13.8762 37.7766 24.7584C37.7641 24.795 37.7658 24.833 37.7815 24.8691C37.7972 24.9053 37.8265 24.9384 37.8668 24.9657Z" fill="#CE0E2D"/>
</svg>
