<svg width="268" height="32" viewBox="0 0 268 32" fill="none" xmlns="http://www.w3.org/2000/svg">
<g clip-path="url(#clip0_20_161)">
<path d="M184.141 0.0403652L177.349 0.0565128V31.9758H208.496C211.903 30.6517 213.727 28.3628 214.433 25.6904H184.123L184.141 0.0403652ZM234.967 6.41857H260.948C264.558 5.7646 267.246 2.84597 268 0.0242176H227.91C228.66 2.84597 231.388 5.7646 234.967 6.41857ZM150.825 6.32976C154.435 5.36899 157.476 2.84597 158.216 0.048439H120.092V18.9085H151.297V25.529L126.823 25.5491C122.984 26.526 119.74 28.8836 118.114 32L120.092 31.9677H158.005V12.6393H126.823V6.32976H150.825ZM228.959 31.9677H235.716V19.1185H260.314V31.9677H267.066V12.6958L228.959 12.6636V31.9677ZM67.5829 6.39838H93.56C97.1741 5.74038 99.8582 2.82174 100.612 -3.8147e-06H60.5266C61.2759 2.82174 63.9997 5.74038 67.5829 6.39838ZM0 0.0726585C0.780108 2.86615 3.42013 5.71212 7.0386 6.43068H17.9733L18.5287 6.63252V31.9031H25.3601V6.63252L25.9771 6.43068H36.9251C40.5788 5.5668 43.1615 2.86615 43.9328 0.0726585V0.0121078H0V0.0726585ZM67.5829 31.9717H93.56C97.1741 31.3097 99.8582 28.3991 100.612 25.5734H60.5266C61.2759 28.3991 63.9997 31.3097 67.5829 31.9717ZM67.5829 19.0135H93.56C97.1741 18.3595 99.8582 15.4409 100.612 12.6191H60.5266C61.2759 15.4409 63.9997 18.3595 67.5829 19.0135Z" fill="#E82127"/>
</g>
<defs>
<clipPath id="clip0_20_161">
<rect width="268" height="32" fill="white"/>
</clipPath>
</defs>
</svg>
