<svg width="211" height="32" viewBox="0 0 211 32" fill="none" xmlns="http://www.w3.org/2000/svg">
<g clip-path="url(#clip0_20_166)">
<path d="M184.819 10.7725C185.991 10.7725 186.955 10.3826 187.085 9.87895L188.242 1.50683C188.242 0.679331 186.727 0 184.823 0C182.92 0 181.407 0.679327 181.407 1.50698L182.563 9.87895C182.69 10.3825 183.654 10.7725 184.823 10.7725H184.819ZM177.749 13.3875C178.337 12.7389 178.292 12.01 177.673 11.6862L166.921 6.85901C165.803 6.44466 164.127 6.9434 163.175 7.99929C162.221 9.05383 162.39 10.2316 163.505 10.6461L175.411 14.1939C176.155 14.3705 177.17 14.0306 177.753 13.3825L177.749 13.3875ZM191.895 13.383C192.482 14.0311 193.492 14.3711 194.237 14.1944L206.143 10.6466C207.265 10.2322 207.424 9.05428 206.478 7.99974C205.522 6.9449 203.843 6.44511 202.728 6.85946L191.975 11.6866C191.361 12.01 191.315 12.7395 191.899 13.3879L191.895 13.383ZM184.819 21.2305C185.991 21.2305 186.955 21.6171 187.085 22.1212L188.242 30.4921C188.242 31.3222 186.727 32 184.823 32C182.92 32 181.407 31.3222 181.407 30.4921L182.563 22.1212C182.69 21.6171 183.654 21.2305 184.823 21.2305H184.819ZM191.895 18.6149C192.482 17.965 193.492 17.628 194.237 17.8067L206.143 21.3521C207.265 21.7669 207.424 22.9459 206.478 24.0013C205.522 25.0527 203.843 25.5538 202.728 25.1401L191.975 20.3174C191.361 19.9915 191.315 19.2615 191.899 18.6136H191.895M177.749 18.614C178.337 19.2615 178.292 19.9915 177.673 20.318L166.921 25.1405C165.803 25.5543 164.127 25.0532 163.175 24.0018C162.221 22.9463 162.39 21.7673 163.505 21.3526L175.411 17.8071C176.155 17.6285 177.17 17.9655 177.753 18.6155H177.749" fill="#FDBB30"/>
<path d="M116.996 20.3022C116.996 20.5591 116.961 20.8241 116.851 21.0568C116.395 22.0234 114.831 22.8407 112.875 22.8407C111.244 22.8407 109.948 22.2477 109.948 20.9953C109.948 19.0784 113.245 18.5491 116.997 18.5624L116.996 20.3021V20.3022ZM122.883 16.9617C122.883 13.8009 120.772 11.0197 113.642 11.0197C109.981 11.0197 107.076 11.6777 105.491 12.2641L106.652 14.8052C108.101 14.2196 110.411 13.7349 112.597 13.7349C116.213 13.7285 116.806 15.0458 116.806 15.8888V16.0884C108.922 16.0809 103.938 17.8281 103.938 21.3872C103.938 23.562 106.476 25.599 110.889 25.599C113.6 25.599 115.871 24.9064 117.23 23.7958H117.364C117.364 23.7958 118.263 26.2069 123.228 25.2844C122.969 24.2817 122.884 23.2113 122.884 21.9242L122.883 16.9617M0.0397949 6.7152C0.0397949 6.7152 5.19187 20.2262 6.01457 22.4189C6.97427 24.9784 8.70392 25.9206 13.6884 25.2844L16.9052 16.9081C17.7209 14.8265 18.2668 13.3424 18.7924 11.227H18.8839C19.2529 13.3648 19.7764 14.8329 20.4476 16.915C20.4476 16.915 21.7565 20.7179 22.4279 22.7147C23.1001 24.7108 24.9709 25.9697 29.8539 25.2844L37.5194 6.7146H31.3322L28.714 14.7436C28.0101 17.0797 27.3721 18.9073 26.8796 21.044H26.7921C26.3447 18.9261 25.775 17.1731 25.0601 14.8964L22.3364 6.7146H15.8888L12.9738 14.6901C12.1487 17.1144 11.3751 19.0711 10.8849 21.1367H10.7958C10.2926 19.1917 9.62278 16.7314 8.89787 14.3859C8.89787 14.3859 7.16728 8.68104 6.5586 6.7146L0.0397949 6.7152ZM49.2229 20.3022C49.2229 20.5591 49.1872 20.8241 49.0757 21.0568C48.6205 22.0234 47.0559 22.8407 45.0996 22.8407C43.4682 22.8407 42.1746 22.2477 42.1746 20.9953C42.1746 19.0784 45.4703 18.5491 49.2236 18.5624L49.2229 20.3021V20.3022ZM55.1083 16.9617C55.1083 13.8009 52.998 11.0197 45.8689 11.0197C42.2077 11.0197 39.3004 11.6777 37.7157 12.2641L38.8756 14.8052C40.3245 14.2196 42.6341 13.7349 44.8205 13.7349C48.4399 13.7285 49.0322 15.0458 49.0322 15.8888V16.0884C41.1448 16.0809 36.1634 17.8281 36.1634 21.3872C36.1634 23.562 38.7003 25.599 43.1095 25.599C45.8245 25.599 48.094 24.9064 49.4547 23.7958H49.5872C49.5872 23.7958 50.4891 26.2069 55.4523 25.2844C55.1928 24.2817 55.1083 23.2113 55.1083 21.9242V16.9617ZM64.9307 21.3426V6.7152H59.0377V25.285H64.9307V21.3426ZM142.023 6.7152V20.4138C142.023 22.3033 142.58 23.6257 143.767 24.435C144.806 25.1425 146.515 25.6005 148.564 25.6005C150.307 25.6005 152.021 25.3876 152.829 25.1957L152.753 22.2492C152.152 22.3433 151.461 22.4195 150.515 22.4195C148.507 22.4195 147.836 21.5962 147.836 19.9007V14.6594H152.967V11.1059H147.836V6.7152H142.023ZM126.812 11.3347V25.285H132.891V18.1422C132.891 17.7561 132.928 17.4197 133.023 17.112C133.473 15.615 135.261 14.6594 137.829 14.6594C138.533 14.6594 139.036 14.7084 139.582 14.758V11.1059C139.124 11.0475 138.813 11.0202 138.243 11.0202C135.975 11.0202 133.394 11.957 132.311 13.9666H132.146V11.3347H126.812ZM69.0571 11.3347V25.285H74.9798V17.1045C74.9798 16.7207 75.0503 16.3147 75.258 15.9628C75.7488 15.1391 76.9466 14.1745 78.8578 14.1745C81.2489 14.1745 82.3654 15.4676 82.3654 17.3338V25.284H88.2835V17.0039C88.2835 16.6376 88.3617 16.1961 88.5309 15.8731C89.0168 14.9357 90.307 14.1735 92.084 14.1735C94.5068 14.1735 95.6698 15.4439 95.6698 17.6405V25.2835H101.592V17.0667C101.592 12.734 98.154 11.0188 94.2727 11.0188C92.5555 11.0188 91.1985 11.2941 89.9714 11.7754C88.9409 12.1816 88.0167 12.7573 87.2104 13.514H87.1228C86.1869 12.0106 83.9849 11.0196 81.1154 11.0196C77.429 11.0196 75.7722 12.2156 74.7672 13.2298H74.679V11.3343H69.0571" fill="#1A75CF"/>
<path d="M209.129 24.6068H209.218C209.337 24.6068 209.413 24.5754 209.413 24.5288C209.413 24.4758 209.341 24.447 209.231 24.447C209.193 24.447 209.155 24.4519 209.129 24.4519V24.6081V24.6066L209.129 24.6068ZM209.115 24.9829H208.8V24.3264C208.872 24.3175 209.038 24.3015 209.252 24.3015C209.483 24.3015 209.587 24.3224 209.663 24.3552C209.727 24.3839 209.774 24.4329 209.774 24.4991C209.774 24.5665 209.677 24.6235 209.534 24.6485V24.6568C209.651 24.6767 209.714 24.7308 209.748 24.8256C209.78 24.9203 209.799 24.959 209.819 24.9833H209.462C209.431 24.959 209.413 24.9009 209.392 24.8429C209.372 24.7765 209.323 24.7432 209.218 24.7432H209.114L209.115 24.9829ZM209.245 24.1125C208.793 24.1125 208.452 24.3482 208.452 24.6488C208.452 24.9415 208.794 25.1804 209.258 25.1804C209.723 25.1853 210.065 24.9417 210.065 24.644C210.065 24.3476 209.723 24.1125 209.252 24.1125H209.245ZM209.266 23.9343C209.896 23.9343 210.398 24.2519 210.398 24.6438C210.398 25.0404 209.896 25.3584 209.257 25.3584C208.618 25.3584 208.109 25.04 208.109 24.644C208.109 24.2519 208.619 23.9345 209.257 23.9345H209.264" fill="#FDBB30"/>
</g>
<defs>
<clipPath id="clip0_20_166">
<rect width="211" height="32" fill="white"/>
</clipPath>
</defs>
</svg>
